# Blender 4.1.1
# www.blender.org
mtllib float_Head.mtl
o float_Head
v 0.264039 0.472599 0.000583
v 0.143913 0.579965 -0.002095
v -0.208871 0.569331 0.194746
v 0.190420 -0.025713 -0.181554
v -0.204977 0.571602 -0.198080
v -0.038886 0.733736 -0.427702
v -0.261609 0.459894 0.316715
v -0.030751 0.718892 0.430559
v -0.014604 0.742301 0.370008
v -0.045146 0.753334 0.361088
v -0.260421 0.461213 -0.316689
v 0.187901 -0.022734 0.195500
v 0.226188 0.498973 0.135247
v 0.224838 0.500448 -0.135128
v 0.306413 0.389110 0.001871
v 0.295313 0.378349 -0.137568
v 0.294775 0.376871 0.142215
v 0.085307 0.605175 0.151063
v 0.119664 0.556427 0.226297
v 0.043213 0.622355 -0.002986
v 0.029792 0.629315 0.115492
v 0.081838 0.606698 -0.160800
v 0.028605 0.631063 -0.128040
v 0.113469 0.559591 -0.231385
v -0.243913 0.573156 -0.004187
v -0.290165 0.544093 -0.004802
v -0.275194 0.526808 0.179707
v -0.199620 0.530380 0.315414
v -0.170846 0.604961 0.151656
v -0.204858 0.594222 -0.005486
v -0.139528 0.632985 0.301507
v -0.121587 0.650739 0.259161
v -0.140598 0.611487 0.354624
v 0.205757 -0.034212 -0.102089
v 0.124305 -0.084685 -0.107633
v 0.128562 -0.053767 -0.213405
v 0.225600 0.031710 -0.226131
v 0.268101 0.044458 -0.116032
v 0.145321 0.012794 -0.311610
v -0.274437 0.525819 -0.184513
v -0.165301 0.608072 -0.156735
v -0.110148 0.664787 -0.268562
v -0.130964 0.646153 -0.304959
v -0.133574 0.629796 -0.353179
v -0.195757 0.536733 -0.313778
v -0.055000 0.736734 -0.423450
v -0.055283 0.746454 -0.409463
v -0.035193 0.742737 -0.416681
v -0.030678 0.698976 -0.433953
v -0.051875 0.695770 -0.434737
v -0.012863 0.704549 -0.420628
v -0.212465 0.424399 0.380440
v -0.168405 0.501911 0.377556
v -0.277143 0.326868 0.368929
v -0.235653 0.315466 0.399618
v -0.023165 0.675934 0.432884
v -0.002189 0.680973 0.415848
v -0.024964 0.731063 0.419986
v -0.042675 0.744131 0.417055
v -0.045159 0.731904 0.429226
v -0.046302 0.676010 0.436780
v -0.093634 0.663460 0.411895
v -0.065951 0.677630 0.431511
v -0.060833 0.733863 0.421900
v -0.096119 0.694893 0.392313
v -0.016813 0.741785 0.393029
v 0.013014 0.698874 0.365937
v 0.003338 0.711173 0.334843
v -0.019068 0.719351 0.314881
v -0.030663 0.753978 0.372330
v -0.035620 0.754068 0.395284
v -0.045690 0.722753 0.309764
v -0.073639 0.720736 0.322073
v -0.053449 0.755421 0.383113
v -0.211552 0.427298 -0.379856
v -0.235675 0.316783 -0.399266
v -0.276975 0.327694 -0.368802
v -0.165861 0.510166 -0.375843
v -0.074390 0.678655 -0.426627
v -0.080622 0.711878 -0.411246
v 0.001359 0.716303 -0.341936
v -0.001441 0.722380 -0.381182
v -0.028119 0.752452 -0.391087
v -0.022672 0.740817 -0.349351
v -0.062266 0.727029 -0.321502
v -0.038650 0.744102 -0.344525
v -0.047471 0.757405 -0.384563
v -0.073265 0.737112 -0.356045
v 0.221693 0.033539 0.237437
v 0.141931 0.016300 0.318119
v 0.126514 -0.049734 0.225829
v 0.204508 -0.032584 0.115236
v 0.266358 0.045508 0.127865
v 0.123175 -0.082719 0.121207
v 0.192432 0.441595 0.303166
v 0.243939 0.344270 0.294313
v 0.245990 0.346811 -0.289707
v 0.191679 0.444936 -0.300991
v 0.099045 0.521462 -0.321448
v 0.155565 0.313827 -0.398253
v 0.117682 0.403937 -0.395256
v 0.061412 0.496374 -0.395108
v 0.020369 0.604033 -0.408270
v 0.043223 0.617528 -0.365400
v 0.032608 0.381924 -0.441646
v 0.009743 0.480689 -0.432603
v -0.013420 0.595264 -0.432847
v -0.053415 0.475076 -0.438462
v -0.052260 0.594519 -0.437392
v -0.114372 0.485769 -0.418852
v -0.088716 0.598157 -0.424381
v -0.118892 0.611580 -0.394454
v -0.084007 0.721046 -0.392738
v -0.081118 0.730022 -0.373566
v -0.052389 0.752222 -0.398337
v -0.031672 0.747328 -0.406277
v -0.004518 0.713629 -0.402728
v 0.046716 0.639279 -0.318577
v 0.030897 0.661200 -0.277531
v 0.000773 0.674022 -0.250098
v -0.038701 0.679262 -0.237682
v -0.040257 0.639777 -0.115791
v -0.078728 0.676598 -0.244635
v -0.107701 0.633740 -0.122872
v -0.122898 0.623834 -0.004329
v -0.039347 0.632650 -0.003768
v -0.110920 0.631693 0.113513
v -0.041159 0.637874 0.104298
v -0.087221 0.666508 0.228870
v -0.043388 0.670770 0.218863
v 0.001560 0.665543 0.230128
v 0.035948 0.651848 0.259470
v 0.054323 0.627019 0.304400
v 0.009603 0.688744 0.392717
v 0.050526 0.601953 0.358026
v 0.105660 0.513682 0.321281
v 0.027011 0.587353 0.404440
v 0.065354 0.487660 0.395866
v 0.116699 0.399421 0.397836
v 0.011683 0.471811 0.433184
v 0.031816 0.377644 0.442688
v 0.045533 0.289314 0.453827
v 0.152294 0.311235 0.401148
v 0.049123 0.196948 0.451598
v 0.165617 0.214129 0.396519
v 0.260958 0.237244 0.287936
v 0.158959 0.112181 0.373410
v 0.250612 0.130080 0.273301
v 0.303050 0.143250 0.141063
v 0.314726 0.256961 0.144990
v 0.319430 0.148208 0.005113
v 0.330020 0.266499 0.003493
v 0.305143 0.143031 -0.130883
v 0.316381 0.257575 -0.137199
v 0.254920 0.129317 -0.264881
v 0.264651 0.238207 -0.281375
v 0.164110 0.110666 -0.368594
v 0.170698 0.214780 -0.392660
v 0.047711 0.095675 -0.421046
v 0.052497 0.196744 -0.450564
v 0.048314 0.291216 -0.452806
v -0.070608 0.193452 -0.462004
v -0.064966 0.287782 -0.463701
v -0.058244 0.376841 -0.450846
v -0.169082 0.303163 -0.436275
v -0.146042 0.395685 -0.425568
v -0.175925 0.202025 -0.437503
v -0.240237 0.209060 -0.404583
v -0.172734 0.099909 -0.410125
v -0.234953 0.108216 -0.380931
v -0.271018 0.113541 -0.357485
v -0.277603 0.212032 -0.378962
v -0.315268 0.117843 -0.316842
v -0.327313 0.214047 -0.332308
v -0.323566 0.326770 -0.325901
v -0.305583 0.439352 -0.278722
v -0.326986 0.215349 -0.300806
v -0.322843 0.322998 -0.295549
v -0.301504 0.429953 -0.260304
v -0.312923 0.472765 -0.168275
v -0.314002 0.495408 -0.176387
v -0.327787 0.487928 -0.003939
v -0.330020 0.510707 -0.004537
v -0.314583 0.496990 0.170657
v -0.313849 0.473740 0.163232
v -0.301402 0.430309 0.260224
v -0.306131 0.438074 0.278476
v -0.322931 0.322321 0.295732
v -0.323573 0.326019 0.326194
v -0.327028 0.216813 0.300932
v -0.327505 0.215552 0.332280
v -0.316625 0.121591 0.316866
v -0.271664 0.117116 0.358606
v -0.277775 0.213587 0.379041
v -0.235653 0.111900 0.382084
v -0.240561 0.210328 0.404585
v -0.173954 0.103678 0.411464
v -0.176909 0.203176 0.437299
v -0.170127 0.301851 0.436137
v -0.147003 0.392597 0.426039
v -0.072887 0.194306 0.462015
v -0.066982 0.286558 0.463701
v -0.059503 0.373107 0.451508
v -0.053118 0.466251 0.438914
v -0.115963 0.477629 0.419767
v -0.088096 0.579616 0.426007
v -0.120783 0.592618 0.397866
v -0.048734 0.574865 0.437612
v -0.008488 0.578566 0.431601
v -0.074878 0.096053 0.432679
v 0.044452 0.098184 0.423273
v -0.075906 0.001451 0.365724
v 0.035029 0.003596 0.358360
v -0.078652 -0.072590 0.258245
v 0.027831 -0.070346 0.252115
v 0.024945 -0.109928 0.130647
v -0.082342 -0.113205 0.133604
v -0.083754 -0.126276 0.006920
v 0.024285 -0.122769 0.006916
v -0.169582 -0.057666 0.248779
v -0.174420 -0.095126 0.129632
v -0.177518 -0.107125 0.006504
v -0.174589 -0.097436 -0.117262
v -0.082047 -0.115693 -0.120815
v -0.236272 -0.070062 0.124369
v -0.239834 -0.080992 0.006237
v -0.236621 -0.072183 -0.112513
v -0.231152 -0.041670 -0.225599
v -0.169199 -0.062575 -0.238351
v -0.277165 -0.059818 0.006158
v -0.274107 -0.051439 -0.109905
v -0.267762 -0.024056 -0.216983
v -0.265734 0.030867 -0.304959
v -0.229924 0.019586 -0.322057
v -0.308466 0.005047 -0.207969
v -0.303389 0.046800 -0.276855
v -0.307500 0.026185 -0.196946
v -0.301070 0.059065 -0.257097
v -0.315600 0.123541 -0.286399
v -0.322165 -0.015014 -0.108244
v -0.322051 0.010370 -0.103445
v -0.327496 -0.021668 0.006214
v -0.327750 0.004578 0.005599
v -0.320676 -0.013749 0.119848
v -0.320857 0.011581 0.114983
v -0.306569 0.009123 0.218969
v -0.305099 0.029440 0.209069
v -0.303465 0.051259 0.281624
v -0.301476 0.062495 0.260437
v -0.316218 0.127008 0.287250
v -0.267362 -0.019835 0.227175
v -0.266002 0.035991 0.309868
v -0.231153 -0.037197 0.235765
v -0.230540 0.025266 0.327651
v -0.169363 0.011570 0.349314
v -0.273717 -0.049421 0.121526
v -0.168261 0.006072 -0.343894
v -0.072680 0.092882 -0.431231
v -0.074357 -0.003773 -0.360316
v -0.077689 -0.077663 -0.247452
v 0.037089 -0.000696 -0.353060
v 0.029345 -0.075207 -0.240619
v 0.025602 -0.112369 -0.117131
v 0.124058 -0.094039 0.006823
v 0.213266 -0.037536 0.006341
v 0.281016 0.047271 0.006005
v -0.019824 0.735889 0.407994
v -0.039317 0.749577 0.406755
v -0.058560 0.750251 0.394988
v -0.060358 0.744364 0.408089
v -0.096474 0.705574 0.368364
v -0.089263 0.714414 0.342096
v -0.309073 0.377417 0.283373
v -0.296853 0.445021 0.246343
v -0.297011 0.445040 -0.246006
v -0.309167 0.377957 -0.282822
v -0.377698 0.176467 0.087521
v -0.378783 0.177642 -0.078770
v -0.321498 0.228113 -0.297493
v -0.314778 0.141435 -0.282150
v -0.305305 0.055909 -0.226058
v -0.384112 0.241439 -0.079866
v -0.380478 0.307731 -0.080051
v -0.366842 0.375855 -0.080033
v -0.388625 0.242319 0.004146
v -0.384802 0.309210 0.003523
v -0.370919 0.378032 0.002627
v -0.379712 0.308346 0.086669
v -0.366109 0.376541 0.084960
v -0.318265 0.484564 0.086851
v -0.322083 0.488306 0.001484
v -0.314985 0.513413 0.001704
v -0.311300 0.509664 -0.086374
v -0.318475 0.484725 -0.084302
v -0.311127 0.509489 0.088914
v -0.284845 0.462866 0.271417
v -0.301804 0.382676 0.312449
v -0.318840 0.306305 0.296119
v -0.312234 0.307538 0.325639
v -0.321184 0.230295 0.298478
v -0.314413 0.228677 0.328408
v -0.314748 0.146201 0.285135
v -0.305848 0.139713 0.317553
v -0.303180 0.060383 0.237325
v -0.284897 0.037315 0.271909
v -0.305160 -0.003759 0.142321
v -0.315131 0.021808 0.128135
v -0.321853 0.011174 0.007651
v -0.314784 -0.013524 0.010360
v -0.316941 0.019463 -0.110640
v -0.308132 -0.006766 -0.118043
v -0.285790 0.025421 -0.254982
v -0.304519 0.132252 -0.315975
v -0.314335 0.225974 -0.328408
v -0.319089 0.306387 -0.295568
v -0.312229 0.307590 -0.325733
v -0.301709 0.383212 -0.312429
v -0.284816 0.463131 -0.271254
v -0.383217 0.177046 0.004587
v -0.383345 0.241223 0.087455
vn 0.8059 0.5921 0.0010
vn 0.9174 0.3268 -0.2270
vn 0.7377 0.6435 -0.2041
vn 0.9166 0.3244 0.2336
vn 0.9446 0.3282 0.0033
vn 0.5474 0.8369 -0.0005
vn 0.7391 0.6417 0.2050
vn 0.5678 0.8227 0.0276
vn 0.2723 0.9622 0.0026
vn 0.5832 0.8120 -0.0228
vn -0.5247 0.8513 -0.0026
vn -0.6052 0.7578 0.2439
vn -0.6441 0.7493 0.1538
vn -0.7362 0.5359 0.4134
vn -0.5508 0.8346 0.0047
vn -0.6661 0.7331 -0.1373
vn -0.8280 0.5557 0.0748
vn 0.6189 -0.7347 -0.2778
vn 0.4008 -0.9033 -0.1532
vn 0.4043 -0.8406 -0.3605
vn 0.8508 -0.4973 -0.1698
vn 0.6568 -0.7424 -0.1321
vn 0.4956 -0.6435 -0.5833
vn 0.7516 -0.5366 -0.3837
vn -0.6093 0.7533 -0.2476
vn -0.6492 0.7465 -0.1459
vn -0.5535 0.8327 0.0172
vn -0.8180 0.5743 -0.0330
vn -0.7483 0.5339 -0.3937
vn -0.4035 0.5576 -0.7255
vn 0.3568 0.7403 -0.5698
vn 0.2176 0.4932 -0.8423
vn -0.2348 0.1343 -0.9627
vn 0.6880 0.2655 -0.6754
vn 0.3015 0.1344 -0.9439
vn -0.6749 0.4881 0.5534
vn -0.6380 0.3214 0.6998
vn -0.6253 0.2064 0.7526
vn -0.5590 0.3102 0.7689
vn -0.9082 0.3281 0.2599
vn -0.8839 0.4198 0.2062
vn -0.9066 0.3204 -0.2745
vn -0.8874 0.4103 -0.2100
vn 0.3800 0.2588 0.8880
vn 0.7334 0.1990 0.6500
vn 0.5944 0.5080 0.6234
vn -0.0337 0.4651 0.8846
vn -0.0508 0.0610 0.9968
vn 0.3987 0.0795 0.9136
vn -0.4751 0.1393 0.8688
vn -0.8316 0.3779 0.4070
vn -0.7229 0.2156 0.6565
vn 0.6928 0.7130 -0.1082
vn 0.8820 0.4562 0.1179
vn 0.7320 0.6514 -0.1996
vn 0.3978 0.8131 -0.4250
vn 0.3549 0.9246 -0.1386
vn 0.7162 0.6533 0.2456
vn -0.1109 0.9313 -0.3470
vn -0.4791 0.7968 -0.3681
vn -0.3651 0.9309 0.0121
vn -0.0310 0.8674 -0.4966
vn -0.5617 0.3107 -0.7668
vn -0.6250 0.2065 -0.7528
vn -0.6746 0.4875 -0.5543
vn -0.8988 0.1860 -0.3970
vn -0.8813 -0.2736 -0.3853
vn -0.6266 -0.0679 -0.7764
vn -0.6018 -0.3376 -0.7238
vn -0.6568 0.3139 -0.6856
vn -0.7435 0.3463 -0.5721
vn -0.5503 0.1359 -0.8238
vn 0.8274 0.5435 -0.1411
vn 0.4924 0.8270 0.2713
vn 0.7488 0.6437 0.1580
vn 0.0410 0.9160 0.3990
vn -0.5846 0.7831 0.2122
vn -0.3308 0.8318 0.4457
vn 0.6132 -0.7304 0.3009
vn 0.4860 -0.6340 0.6016
vn 0.3982 -0.8333 0.3835
vn 0.8481 -0.4954 0.1880
vn 0.7433 -0.5316 0.4061
vn 0.3985 -0.9005 0.1739
vn 0.6547 -0.7406 0.1513
vn 0.7051 0.4864 0.5159
vn 0.7068 0.4914 -0.5089
vn 0.7263 0.6403 -0.2501
vn 0.5956 0.1533 -0.7886
vn 0.5533 0.3166 -0.7704
vn 0.7559 0.4671 -0.4587
vn 0.6630 0.2681 -0.6989
vn 0.8701 0.3087 -0.3841
vn 0.2774 0.1705 -0.9455
vn 0.3294 0.1184 -0.9367
vn 0.7118 0.1693 -0.6817
vn 0.3465 0.0591 -0.9362
vn -0.0968 0.0814 -0.9920
vn -0.1095 0.0226 -0.9937
vn -0.4255 0.1487 -0.8927
vn -0.5024 0.0786 -0.8610
vn -0.7682 0.2230 -0.6001
vn -0.8717 0.4036 -0.2780
vn -0.8215 0.5104 -0.2544
vn -0.7751 0.6303 -0.0440
vn -0.4118 0.8057 -0.4257
vn 0.4315 0.7906 -0.4345
vn -0.3373 0.8962 -0.2882
vn -0.1545 0.9880 0.0048
vn 0.4943 0.8566 -0.1479
vn 0.8130 0.4019 -0.4213
vn 0.8691 0.4765 -0.1326
vn 0.7129 0.6899 0.1261
vn 0.4117 0.8531 0.3204
vn 0.3203 0.9383 0.1304
vn 0.0544 0.9150 0.3997
vn 0.0234 0.9837 0.1781
vn -0.3310 0.8778 0.3462
vn -0.2924 0.9464 0.1371
vn 0.0133 0.9999 0.0067
vn -0.2792 0.9544 -0.1054
vn 0.0169 0.9885 -0.1502
vn 0.3005 0.9475 -0.1094
vn -0.3790 0.8727 -0.3078
vn 0.0119 0.9261 -0.3771
vn 0.3694 0.8771 -0.3070
vn 0.6878 0.7164 -0.1168
vn 0.8575 0.4967 0.1339
vn 0.7143 0.6525 0.2531
vn 0.8685 0.3174 0.3808
vn 0.7383 0.4808 0.4729
vn 0.6464 0.2772 0.7109
vn 0.5469 0.3096 0.7779
vn 0.2687 0.1707 0.9480
vn 0.2641 0.0730 0.9617
vn 0.5867 0.1480 0.7962
vn 0.6109 -0.0833 0.7873
vn 0.8596 -0.0196 0.5105
vn 0.8216 0.2375 0.5182
vn 0.8302 -0.2781 0.4832
vn 0.9455 -0.2372 0.2229
vn 0.9722 0.0298 0.2322
vn 0.9749 -0.2227 0.0071
vn 0.9987 0.0510 0.0047
vn 0.9751 0.0312 -0.2195
vn 0.9491 -0.2378 -0.2063
vn 0.8682 -0.0170 -0.4959
vn 0.8266 0.2437 -0.5073
vn 0.8396 -0.2810 -0.4649
vn 0.6246 -0.0811 -0.7768
vn 0.5907 -0.3557 -0.7243
vn 0.2750 -0.1455 -0.9504
vn 0.2738 0.0760 -0.9588
vn -0.0722 0.0667 -0.9952
vn -0.0746 0.1400 -0.9873
vn -0.3561 0.1147 -0.9274
vn -0.3646 0.1991 -0.9096
vn -0.5130 0.1547 -0.8443
vn -0.3516 -0.1104 -0.9296
vn -0.5166 -0.0801 -0.8525
vn -0.4887 -0.3683 -0.7909
vn -0.9124 -0.0584 -0.4052
vn -0.5872 0.8095 -0.0059
vn -0.9206 0.3905 -0.0053
vn -0.9933 0.1098 0.0357
vn -0.9852 -0.1152 0.1267
vn -0.9932 -0.0790 -0.0860
vn -0.9135 -0.0556 0.4030
vn -0.8961 0.1807 0.4054
vn -0.9940 -0.0618 0.0906
vn -0.9747 -0.1403 -0.1739
vn -0.9953 0.0865 -0.0435
vn -0.8910 -0.2608 0.3716
vn -0.6276 -0.0641 0.7759
vn -0.8801 -0.4014 -0.2534
vn -0.5440 -0.8243 -0.1570
vn -0.8888 -0.4355 -0.1429
vn -0.6053 -0.3256 0.7264
vn -0.5177 -0.0769 0.8521
vn -0.5132 0.1540 0.8443
vn -0.4924 -0.3553 0.7945
vn -0.3549 -0.1065 0.9288
vn -0.3582 0.1142 0.9266
vn -0.3630 0.2009 0.9099
vn -0.0782 0.0658 0.9948
vn -0.0771 0.1449 0.9864
vn -0.0924 0.0837 0.9922
vn -0.4119 0.1547 0.8980
vn -0.7325 0.1900 0.6537
vn -0.4589 0.0620 0.8863
vn -0.0720 0.0191 0.9972
vn 0.3217 0.1216 0.9390
vn 0.3774 0.0673 0.9236
vn 0.7221 0.1770 0.6688
vn -0.8611 0.3724 0.3462
vn 0.2641 -0.1446 0.9536
vn -0.0766 -0.1485 0.9859
vn -0.3284 -0.3963 0.8574
vn -0.0711 -0.4315 0.8993
vn 0.2398 -0.4214 0.8746
vn 0.1948 -0.6977 0.6894
vn 0.5762 -0.3522 0.7375
vn -0.0678 -0.7059 0.7051
vn 0.1666 -0.8843 0.4362
vn 0.1552 -0.9670 0.2020
vn -0.0717 -0.8923 0.4456
vn -0.0803 -0.9749 0.2079
vn 0.1542 -0.9880 0.0100
vn -0.2764 -0.8605 0.4280
vn -0.2882 -0.9369 0.1980
vn -0.0841 -0.9964 0.0100
vn -0.2884 -0.9408 -0.1780
vn -0.2940 -0.9558 0.0092
vn -0.4331 -0.8824 0.1841
vn -0.4399 -0.8980 0.0087
vn -0.4337 -0.8857 -0.1655
vn -0.4187 -0.8258 -0.3778
vn -0.5336 -0.7689 -0.3521
vn -0.4318 -0.6527 -0.6225
vn -0.8834 -0.3628 -0.2965
vn -0.5585 -0.5981 -0.5748
vn -0.8812 -0.3945 0.2605
vn -0.5610 -0.5805 0.5902
vn -0.8796 -0.3609 0.3100
vn -0.9974 0.0327 0.0640
vn -0.9857 -0.1675 0.0209
vn -0.9918 0.0873 -0.0937
vn -0.9949 0.0229 -0.0977
vn -0.9999 -0.0078 0.0072
vn -0.8897 -0.4564 0.0093
vn -0.9951 0.0183 0.0971
vn -0.9912 0.1122 0.0705
vn -0.9975 0.0202 -0.0683
vn -0.9864 -0.1594 -0.0413
vn -0.9991 -0.0398 -0.0168
vn -0.8845 -0.4410 0.1523
vn -0.5337 -0.7596 0.3716
vn -0.4367 -0.6350 0.6372
vn -0.4175 -0.8162 0.3994
vn -0.2872 -0.6785 0.6762
vn -0.5426 -0.8217 0.1742
vn -0.5492 -0.8357 0.0083
vn -0.3230 -0.4097 -0.8531
vn -0.2823 -0.6933 -0.6630
vn -0.2749 -0.8714 -0.4063
vn -0.0654 -0.4420 -0.8946
vn -0.0640 -0.7200 -0.6911
vn -0.0689 -0.9026 -0.4249
vn 0.1713 -0.8936 -0.4149
vn 0.1571 -0.9710 -0.1804
vn -0.0797 -0.9791 -0.1870
vn 0.4060 -0.9138 0.0096
vn 0.6686 -0.7436 0.0089
vn 0.8709 -0.4914 0.0082
vn 0.1996 -0.7103 -0.6750
vn 0.2493 -0.4288 -0.8683
vn -0.0702 -0.1521 -0.9859
vn 0.8631 0.3219 0.3891
vn 0.6884 0.5658 0.4539
vn 0.0844 0.7990 0.5954
vn 0.2428 0.9328 0.2662
vn 0.1567 0.8774 0.4534
vn -0.5602 0.7351 0.3817
vn -0.5288 0.8215 0.2133
vn -0.8424 0.5286 0.1044
vn -0.5665 0.4878 0.6641
vn -0.7336 0.6649 -0.1402
vn -0.4230 0.9061 -0.0039
vn -0.2392 0.9710 -0.0036
vn -0.6406 0.7461 0.1813
vn -0.9990 -0.0420 0.0121
vn -0.9952 -0.0976 -0.0019
vn -0.9681 -0.2029 -0.1470
vn -0.9194 -0.3132 -0.2381
vn -0.9427 -0.3096 -0.1247
vn -0.9677 -0.0399 -0.2488
vn -0.9504 -0.1895 -0.2467
vn -0.9863 -0.0154 -0.1642
vn -0.9638 0.1056 -0.2447
vn -0.9411 0.3382 0.0012
vn -0.9452 0.2896 -0.1506
vn -0.9529 0.3033 0.0028
vn -0.9790 0.1228 -0.1630
vn -0.9999 -0.0128 0.0046
vn -0.9918 0.1278 0.0042
vn -0.9353 0.3292 0.1296
vn -0.9438 0.2920 0.1552
vn -0.9204 0.3184 0.2268
vn -0.9558 0.2673 0.1226
vn -0.9457 0.2293 0.2306
vn -0.9557 0.2687 -0.1203
vn -0.9357 0.3291 -0.1272
vn -0.9623 0.2720 0.0017
vn -0.9204 0.3194 -0.2254
vn -0.9231 0.3156 -0.2197
vn -0.9532 0.2232 0.2039
vn -0.9239 0.3134 0.2195
vn -0.9715 0.1014 0.2141
vn -0.9676 -0.0366 0.2498
vn -0.9743 -0.0394 0.2219
vn -0.9515 -0.1861 0.2449
vn -0.9528 -0.1917 0.2354
vn -0.9192 -0.3067 0.2470
vn -0.9086 -0.3225 0.2653
vn -0.9428 -0.2916 0.1618
vn -0.9393 -0.3121 0.1422
vn -0.9601 -0.2792 0.0140
vn -0.9466 -0.2929 -0.1345
vn -0.9061 -0.3362 -0.2569
vn -0.9485 -0.2003 -0.2454
vn -0.9727 -0.0446 -0.2276
vn -0.9708 0.1012 -0.2177
vn -0.9458 0.2296 -0.2296
vn -0.9525 0.2241 -0.2061
vn -0.9500 -0.3123 0.0066
vn -0.9662 -0.2044 0.1573
vn -0.9764 -0.2161 0.0042
vn -0.9849 -0.0147 0.1724
vn -0.9775 0.1252 0.1699
vn -0.9635 0.1060 0.2457
vt 0.769182 0.817667
vt 0.713983 0.777613
vt 0.713670 0.830238
vt 0.825705 0.777804
vt 0.769577 0.782074
vt 0.767681 0.868619
vt 0.824381 0.830767
vt 0.833288 0.883967
vt 0.766647 0.893232
vt 0.699526 0.882868
vt 0.762901 0.889158
vt 0.850858 0.869653
vt 0.857265 0.886341
vt 0.914023 0.867619
vt 0.836638 0.900661
vt 0.886386 0.919838
vt 0.906570 0.913023
vt 0.692753 0.614868
vt 0.720747 0.589245
vt 0.677931 0.602255
vt 0.720875 0.643975
vt 0.724864 0.611592
vt 0.638974 0.629904
vt 0.676229 0.638532
vt 0.676539 0.866735
vt 0.673057 0.884425
vt 0.693627 0.899465
vt 0.627809 0.913896
vt 0.620345 0.866446
vt 0.579633 0.949138
vt 0.583893 0.950319
vt 0.578874 0.946402
vt 0.575050 0.929968
vt 0.583764 0.931111
vt 0.576829 0.929824
vt 0.916121 0.836640
vt 0.941815 0.852437
vt 0.940233 0.772205
vt 0.944140 0.817288
vt 0.898817 0.827869
vt 0.846826 0.857141
vt 0.630537 0.825628
vt 0.678772 0.854177
vt 0.962952 0.946322
vt 0.954188 0.926219
vt 0.957984 0.951457
vt 0.963306 0.953666
vt 0.965974 0.927465
vt 0.962949 0.925614
vt 0.964622 0.929724
vt 0.948181 0.940046
vt 0.956727 0.925000
vt 0.934798 0.955387
vt 0.931162 0.932921
vt 0.917682 0.939109
vt 0.909568 0.944556
vt 0.936734 0.962286
vt 0.945400 0.955544
vt 0.932193 0.963163
vt 0.914892 0.949846
vt 0.942761 0.965104
vt 0.908224 0.948319
vt 0.589502 0.815149
vt 0.590451 0.770329
vt 0.615340 0.833843
vt 0.607403 0.771358
vt 0.612554 0.671212
vt 0.586078 0.715533
vt 0.596628 0.669407
vt 0.594094 0.851868
vt 0.583354 0.939842
vt 0.577112 0.923870
vt 0.601467 0.938633
vt 0.614006 0.948996
vt 0.618597 0.935985
vt 0.615208 0.951866
vt 0.608146 0.951430
vt 0.624056 0.946143
vt 0.845192 0.615247
vt 0.897298 0.630264
vt 0.858440 0.602776
vt 0.817627 0.644088
vt 0.862273 0.638594
vt 0.814757 0.589361
vt 0.812291 0.611754
vt 0.894362 0.808515
vt 0.645207 0.807654
vt 0.670744 0.860131
vt 0.604202 0.753731
vt 0.603130 0.792555
vt 0.632522 0.843890
vt 0.599762 0.834391
vt 0.611011 0.888677
vt 0.578790 0.785608
vt 0.580804 0.829645
vt 0.591467 0.883810
vt 0.578809 0.881781
vt 0.574099 0.829929
vt 0.574222 0.883790
vt 0.578447 0.837714
vt 0.577391 0.887828
vt 0.588555 0.896217
vt 0.606019 0.906038
vt 0.591283 0.944533
vt 0.599930 0.948636
vt 0.585714 0.953768
vt 0.588642 0.952222
vt 0.590767 0.956284
vt 0.597106 0.958381
vt 0.595470 0.954408
vt 0.591999 0.934731
vt 0.631071 0.898409
vt 0.647856 0.909520
vt 0.658382 0.917607
vt 0.712183 0.897226
vt 0.662148 0.922976
vt 0.715820 0.905893
vt 0.657354 0.924698
vt 0.710862 0.907779
vt 0.765583 0.903370
vt 0.818564 0.908841
vt 0.813992 0.906699
vt 0.818467 0.898047
vt 0.871619 0.924449
vt 0.866082 0.923021
vt 0.870096 0.917355
vt 0.882175 0.908873
vt 0.901236 0.896712
vt 0.864725 0.860971
vt 0.924786 0.885999
vt 0.905582 0.843421
vt 0.939333 0.834168
vt 0.936795 0.793349
vt 0.960000 0.786644
vt 0.962910 0.747185
vt 0.935563 0.754434
vt 0.931800 0.713072
vt 0.884025 0.721636
vt 0.888204 0.766052
vt 0.877212 0.677978
vt 0.823379 0.683342
vt 0.825723 0.728832
vt 0.769685 0.685310
vt 0.769748 0.732259
vt 0.714263 0.728685
vt 0.716149 0.683260
vt 0.656019 0.721350
vt 0.652010 0.765612
vt 0.662080 0.677773
vt 0.607462 0.712602
vt 0.616922 0.670023
vt 0.576960 0.705908
vt 0.575452 0.746152
vt 0.563131 0.746769
vt 0.568782 0.786147
vt 0.567552 0.755933
vt 0.573596 0.797702
vt 0.579375 0.763961
vt 0.566910 0.709905
vt 0.577014 0.713742
vt 0.588384 0.667137
vt 0.604400 0.717075
vt 0.761900 0.877932
vt 0.761353 0.863826
vt 0.621745 0.769601
vt 0.639454 0.820943
vt 0.682652 0.842985
vt 0.922957 0.718611
vt 0.921407 0.773050
vt 0.842932 0.845426
vt 0.889607 0.823684
vt 0.906334 0.771100
vt 0.913638 0.672735
vt 0.943428 0.717138
vt 0.663518 0.618043
vt 0.710001 0.592375
vt 0.709522 0.608053
vt 0.931834 0.670748
vt 0.953790 0.715199
vt 0.952815 0.765577
vt 0.941298 0.668429
vt 0.965785 0.711236
vt 0.966457 0.757505
vt 0.961904 0.799608
vt 0.973263 0.748195
vt 0.968662 0.787556
vt 0.964025 0.830126
vt 0.958665 0.838358
vt 0.950445 0.893071
vt 0.961703 0.884927
vt 0.964894 0.880276
vt 0.958181 0.829677
vt 0.960103 0.879462
vt 0.946268 0.881133
vt 0.931319 0.903175
vt 0.960382 0.706657
vt 0.971353 0.706344
vt 0.951980 0.664915
vt 0.956641 0.662068
vt 0.946821 0.663778
vt 0.917769 0.623025
vt 0.921044 0.670320
vt 0.925212 0.619962
vt 0.871334 0.591540
vt 0.819091 0.575058
vt 0.876483 0.587501
vt 0.821104 0.570033
vt 0.766560 0.570056
vt 0.874636 0.591495
vt 0.820173 0.574854
vt 0.765547 0.564772
vt 0.709290 0.574711
vt 0.764552 0.569821
vt 0.818427 0.584198
vt 0.763939 0.579480
vt 0.709791 0.584020
vt 0.658807 0.598424
vt 0.661125 0.605499
vt 0.615391 0.626564
vt 0.631854 0.637833
vt 0.621061 0.631074
vt 0.864717 0.619033
vt 0.907184 0.632355
vt 0.895181 0.639055
vt 0.641108 0.643586
vt 0.626684 0.673897
vt 0.668702 0.627953
vt 0.711861 0.620021
vt 0.763196 0.616904
vt 0.763332 0.604460
vt 0.815288 0.620132
vt 0.860178 0.628748
vt 0.885082 0.644485
vt 0.899317 0.675370
vt 0.907588 0.719185
vt 0.817384 0.608082
vt 0.867387 0.606277
vt 0.914120 0.627917
vt 0.870364 0.599139
vt 0.921626 0.622710
vt 0.817542 0.592594
vt 0.763629 0.588027
vt 0.579595 0.663742
vt 0.609290 0.621678
vt 0.655829 0.590808
vt 0.577204 0.661304
vt 0.607628 0.619218
vt 0.655830 0.586902
vt 0.663105 0.590960
vt 0.714463 0.574897
vt 0.710163 0.569899
vt 0.767541 0.585075
vt 0.768376 0.610177
vt 0.769217 0.645091
vt 0.616802 0.622605
vt 0.589136 0.663267
vt 0.563832 0.705282
vt 0.943259 0.928727
vt 0.952303 0.953176
vt 0.957745 0.959117
vt 0.947510 0.962983
vt 0.952906 0.961299
vt 0.954502 0.960708
vt 0.948426 0.963221
vt 0.937160 0.944974
vt 0.960774 0.955887
vt 0.924720 0.948351
vt 0.762850 0.896701
vt 0.764440 0.905090
vt 0.645214 0.921375
vt 0.619179 0.717733
vt 0.761532 0.852301
vt 0.190197 0.762092
vt 0.086121 0.674871
vt 0.169140 0.647126
vt 0.032856 0.801168
vt 0.044708 0.737335
vt 0.189418 0.810202
vt 0.034348 0.859316
vt 0.254324 0.997109
vt 0.190767 0.912346
vt 0.252812 0.914224
vt 0.189768 0.860568
vt 0.252395 0.810735
vt 0.252537 0.861739
vt 0.318385 0.994452
vt 0.315144 0.913149
vt 0.437779 0.964182
vt 0.320288 1.013202
vt 0.464876 0.913213
vt 0.189350 1.012557
vt 0.190428 0.993903
vt 0.254897 1.015966
vt 0.072313 0.962668
vt 0.054822 0.975762
vt 0.486701 0.917132
vt 0.456682 0.977442
vt 0.495692 0.860346
vt 0.474199 0.802039
vt 0.496505 0.800866
vt 0.462703 0.739173
vt 0.486621 0.734494
vt 0.425627 0.676092
vt 0.450605 0.659789
vt 0.354638 0.629328
vt 0.344391 0.647648
vt 0.257473 0.622425
vt 0.164125 0.628499
vt 0.066742 0.653778
vt 0.021131 0.731004
vt 0.011021 0.799715
vt 0.012962 0.860183
vt 0.044421 0.912636
vt 0.023449 0.916381
vt 0.255448 0.640147
vt 0.314931 0.760832
vt 0.252429 0.761343
vt 0.315425 0.809867
vt 0.315549 0.861091
vt 0.473589 0.859423
s 1
usemtl 材质
f 1/1/1 16/2/2 14/3/3
f 1/1/1 17/4/4 15/5/5
f 1/1/1 2/6/6 13/7/7
f 18/8/8 13/7/7 2/6/6
f 20/9/9 18/8/8 2/6/6
f 22/10/10 20/9/9 2/6/6
f 14/3/3 22/10/10 2/6/6
f 25/11/11 27/12/12 3/13/13
f 27/12/12 28/14/14 3/13/13
f 29/15/15 25/11/11 3/13/13
f 3/13/13 32/16/16 29/15/15
f 28/14/14 31/17/17 3/13/13
f 4/18/18 35/19/19 36/20/20
f 4/18/18 38/21/21 34/22/22
f 4/18/18 39/23/23 37/24/24
f 40/25/25 25/11/11 5/26/26
f 25/11/11 41/27/27 5/26/26
f 41/27/27 43/28/28 5/26/26
f 43/28/28 45/29/29 5/26/26
f 45/29/29 40/25/25 5/26/26
f 46/30/30 48/31/31 6/32/32
f 6/32/32 50/33/33 46/30/30
f 6/32/32 51/34/34 49/35/35
f 7/36/36 53/37/37 28/14/14
f 54/38/38 52/39/39 7/36/36
f 187/40/40 27/12/12 184/41/41
f 40/25/25 176/42/42 181/43/43
f 8/44/44 57/45/45 58/46/46
f 58/46/46 60/47/47 8/44/44
f 8/44/44 61/48/48 56/49/49
f 63/50/50 65/51/51 62/52/52
f 9/53/53 67/54/54 68/55/55
f 9/53/53 69/56/56 70/57/57
f 70/57/57 66/58/58 9/53/53
f 10/59/59 73/60/60 74/61/61
f 10/59/59 69/56/56 72/62/62
f 74/61/61 70/57/57 10/59/59
f 75/63/63 77/64/64 11/65/65
f 176/42/42 77/64/64 175/66/66
f 173/67/67 172/68/68 171/69/69
f 11/65/65 78/70/70 75/63/63
f 80/71/71 50/33/33 79/72/72
f 82/73/73 84/74/74 81/75/75
f 86/76/76 88/77/77 85/78/78
f 12/79/79 90/80/80 91/81/81
f 12/79/79 93/82/82 89/83/83
f 12/79/79 94/84/84 92/85/85
f 95/86/86 17/4/4 13/7/7
f 16/2/2 98/87/87 14/3/3
f 98/87/87 24/88/88 14/3/3
f 98/87/87 100/89/89 101/90/90
f 101/90/90 99/91/91 98/87/87
f 102/92/92 104/93/93 99/91/91
f 102/92/92 105/94/94 106/95/95
f 106/95/95 103/96/96 102/92/92
f 49/35/35 103/96/96 107/97/97
f 107/97/97 108/98/98 109/99/99
f 107/97/97 50/33/33 49/35/35
f 109/99/99 110/100/100 111/101/101
f 109/99/99 79/72/72 50/33/33
f 111/101/101 78/70/70 112/102/102
f 112/102/102 79/72/72 111/101/101
f 112/102/102 45/29/29 44/103/103
f 44/103/103 80/71/71 112/102/102
f 113/104/104 46/30/30 80/71/71
f 113/104/104 43/28/28 114/105/105
f 114/105/105 47/106/106 113/104/104
f 116/107/107 47/106/106 115/108/108
f 115/108/108 88/77/77 87/109/109
f 115/108/108 83/110/110 116/107/107
f 116/107/107 82/73/73 117/111/111
f 117/111/111 48/31/31 116/107/107
f 117/111/111 118/112/112 104/93/93
f 104/93/93 51/34/34 117/111/111
f 118/112/112 81/75/75 119/113/113
f 119/113/113 24/88/88 118/112/112
f 118/112/112 99/91/91 104/93/93
f 81/75/75 120/114/114 119/113/113
f 119/113/113 23/115/115 22/10/10
f 84/74/74 121/116/116 120/114/114
f 121/116/116 23/115/115 120/114/114
f 122/117/117 123/118/118 124/119/119
f 124/119/119 126/120/120 122/117/117
f 126/120/120 23/115/115 122/117/117
f 126/120/120 127/121/121 128/122/122
f 126/120/120 21/123/123 20/9/9
f 128/122/122 129/124/124 130/125/125
f 128/122/122 131/126/126 21/123/123
f 130/125/125 69/56/56 131/126/126
f 131/126/126 68/55/55 132/127/127
f 132/127/127 21/123/123 131/126/126
f 68/55/55 133/128/128 132/127/127
f 132/127/127 19/129/129 18/8/8
f 67/54/54 135/130/130 133/128/128
f 133/128/128 136/131/131 19/129/129
f 135/130/130 138/132/132 136/131/131
f 136/131/131 139/133/133 95/86/86
f 95/86/86 19/129/129 136/131/131
f 138/132/132 141/134/134 139/133/133
f 139/133/133 142/135/135 143/136/136
f 143/136/136 95/86/86 139/133/133
f 142/135/135 145/137/137 143/136/136
f 143/136/136 146/138/138 96/139/139
f 145/137/137 148/140/140 146/138/138
f 146/138/138 149/141/141 150/142/142
f 150/142/142 96/139/139 146/138/138
f 150/142/142 151/143/143 152/144/144
f 152/144/144 17/4/4 150/142/142
f 151/143/143 154/145/145 152/144/144
f 152/144/144 16/2/2 15/5/5
f 153/146/146 156/147/147 154/145/145
f 154/145/145 97/148/148 16/2/2
f 155/149/149 158/150/150 156/147/147
f 156/147/147 100/89/89 97/148/148
f 157/151/151 160/152/152 158/150/150
f 158/150/150 161/153/153 100/89/89
f 161/153/153 101/90/90 100/89/89
f 160/152/152 163/154/154 161/153/153
f 161/153/153 164/155/155 105/94/94
f 164/155/155 106/95/95 105/94/94
f 164/155/155 165/156/156 166/157/157
f 166/157/157 108/98/98 164/155/155
f 166/157/157 76/158/158 75/63/63
f 75/63/63 110/100/100 166/157/157
f 163/154/154 167/159/159 165/156/156
f 165/156/156 168/160/160 76/158/158
f 167/159/159 170/161/161 168/160/160
f 168/160/160 171/69/69 172/68/68
f 172/68/68 76/158/158 168/160/160
f 174/162/162 77/64/64 172/68/68
f 26/163/163 181/43/43 183/164/164
f 174/162/162 178/165/165 175/66/66
f 175/66/66 179/166/166 176/42/42
f 179/166/166 181/43/43 176/42/42
f 180/167/167 183/164/164 181/43/43
f 26/163/163 184/41/41 27/12/12
f 191/168/168 54/38/38 189/169/169
f 183/164/164 185/170/170 184/41/41
f 184/41/41 186/171/171 187/40/40
f 187/40/40 188/172/172 189/169/169
f 188/172/172 191/168/168 189/169/169
f 192/173/173 194/174/174 191/168/168
f 235/175/175 231/176/176 240/177/177
f 193/178/178 196/179/179 194/174/174
f 194/174/174 55/180/180 54/38/38
f 195/181/181 198/182/182 196/179/179
f 196/179/179 199/183/183 55/180/180
f 200/184/184 55/180/180 199/183/183
f 198/182/182 202/185/185 199/183/183
f 199/183/183 203/186/186 200/184/184
f 204/187/187 200/184/184 203/186/186
f 203/186/186 142/135/135 141/134/134
f 141/134/134 204/187/187 203/186/186
f 205/188/188 207/189/189 53/37/37
f 205/188/188 52/39/39 200/184/184
f 204/187/187 206/190/190 205/188/188
f 208/191/191 63/50/50 206/190/190
f 208/191/191 140/192/192 209/193/193
f 208/191/191 56/49/49 61/48/48
f 140/192/192 137/194/194 209/193/193
f 209/193/193 57/45/45 56/49/49
f 62/52/52 33/195/195 207/189/189
f 33/195/195 53/37/37 207/189/189
f 206/190/190 62/52/52 207/189/189
f 202/185/185 144/196/196 142/135/135
f 201/197/197 197/198/198 210/199/199
f 201/197/197 211/200/200 144/196/196
f 210/199/199 213/201/201 211/200/200
f 211/200/200 90/80/80 147/202/202
f 147/202/202 144/196/196 211/200/200
f 212/203/203 215/204/204 213/201/201
f 213/201/201 91/81/81 90/80/80
f 216/205/205 91/81/81 215/204/204
f 214/206/206 216/205/205 215/204/204
f 217/207/207 219/208/208 216/205/205
f 217/207/207 220/209/209 221/210/210
f 221/210/210 218/211/211 217/207/207
f 223/212/212 218/211/211 222/213/213
f 222/213/213 225/214/214 226/215/215
f 222/213/213 227/216/216 223/212/212
f 228/217/217 223/212/212 227/216/216
f 226/215/215 231/176/176 227/216/216
f 227/216/216 232/218/218 228/217/217
f 232/218/218 234/219/219 228/217/217
f 232/218/218 236/220/220 233/221/221
f 236/220/220 171/69/69 233/221/221
f 246/222/222 252/223/223 248/224/224
f 235/175/175 238/225/225 236/220/220
f 238/225/225 173/67/67 236/220/220
f 239/226/226 174/162/162 173/67/67
f 237/227/227 240/177/177 241/228/228
f 240/177/177 243/229/229 241/228/228
f 242/230/230 245/231/231 243/229/229
f 245/231/231 246/222/222 247/232/232
f 247/232/232 248/224/224 249/233/233
f 249/233/233 192/173/173 250/234/234
f 250/234/234 191/168/168 190/235/235
f 248/224/224 193/178/178 192/173/173
f 244/236/236 251/237/237 246/222/222
f 251/237/237 254/238/238 252/223/223
f 252/223/223 195/181/181 193/178/178
f 253/239/239 255/240/240 254/238/238
f 254/238/238 197/198/198 195/181/181
f 255/240/240 214/206/206 212/203/203
f 255/240/240 210/199/199 197/198/198
f 253/239/239 221/210/210 220/209/209
f 251/237/237 225/214/214 253/239/239
f 256/241/241 226/215/215 225/214/214
f 256/241/241 242/230/230 230/242/242
f 242/230/230 231/176/176 230/242/242
f 234/219/219 169/243/243 257/244/244
f 234/219/219 229/245/245 228/217/217
f 233/221/221 170/161/161 234/219/219
f 257/244/244 258/246/246 259/247/247
f 257/244/244 260/248/248 229/245/245
f 259/247/247 262/249/249 260/248/248
f 260/248/248 263/250/250 224/251/251
f 224/251/251 229/245/245 260/248/248
f 263/250/250 36/20/20 35/19/19
f 35/19/19 219/208/208 263/250/250
f 219/208/208 224/251/251 263/250/250
f 264/252/252 34/22/22 265/253/253
f 264/252/252 92/85/85 94/84/84
f 94/84/84 219/208/208 264/252/252
f 265/253/253 93/82/82 92/85/85
f 265/253/253 38/21/21 266/254/254
f 266/254/254 149/141/141 93/82/82
f 266/254/254 153/146/146 151/143/143
f 261/255/255 36/20/20 262/249/249
f 159/256/256 39/23/23 261/255/255
f 261/255/255 258/246/246 159/256/256
f 162/257/257 159/256/256 258/246/246
f 169/243/243 162/257/257 258/246/246
f 157/151/151 37/24/24 39/23/23
f 155/149/149 38/21/21 37/24/24
f 148/140/140 93/82/82 149/141/141
f 147/202/202 89/83/83 148/140/140
f 137/194/194 134/258/258 57/45/45
f 267/259/259 57/45/45 134/258/258
f 134/258/258 66/58/58 267/259/259
f 267/259/259 59/260/260 58/46/46
f 267/259/259 71/261/261 268/262/262
f 268/262/262 270/263/263 59/260/260
f 71/261/261 269/264/264 268/262/262
f 271/265/265 64/266/266 270/263/263
f 64/266/266 59/260/260 270/263/263
f 269/264/264 271/265/265 270/263/263
f 272/267/267 31/17/17 271/265/265
f 272/267/267 74/61/61 73/60/60
f 73/60/60 32/16/16 272/267/267
f 271/265/265 33/195/195 65/51/51
f 129/124/124 72/62/62 130/125/125
f 127/121/121 32/16/16 129/124/124
f 127/121/121 30/268/268 29/15/15
f 125/269/269 41/27/27 30/268/268
f 124/119/119 42/270/270 41/27/27
f 85/78/78 42/270/270 123/118/118
f 121/116/116 85/78/78 123/118/118
f 114/105/105 42/270/270 88/77/77
f 86/76/76 83/110/110 87/109/109
f 63/50/50 60/47/47 64/266/266
f 187/40/40 54/38/38 7/36/36
f 1/1/1 15/5/5 16/2/2
f 1/1/1 13/7/7 17/4/4
f 1/1/1 14/3/3 2/6/6
f 18/8/8 19/129/129 13/7/7
f 20/9/9 21/123/123 18/8/8
f 22/10/10 23/115/115 20/9/9
f 14/3/3 24/88/88 22/10/10
f 25/11/11 26/163/163 27/12/12
f 27/12/12 7/36/36 28/14/14
f 29/15/15 30/268/268 25/11/11
f 3/13/13 31/17/17 32/16/16
f 28/14/14 33/195/195 31/17/17
f 4/18/18 34/22/22 35/19/19
f 4/18/18 37/24/24 38/21/21
f 4/18/18 36/20/20 39/23/23
f 40/25/25 26/163/163 25/11/11
f 25/11/11 30/268/268 41/27/27
f 41/27/27 42/270/270 43/28/28
f 43/28/28 44/103/103 45/29/29
f 45/29/29 11/65/65 40/25/25
f 46/30/30 47/106/106 48/31/31
f 6/32/32 49/35/35 50/33/33
f 6/32/32 48/31/31 51/34/34
f 7/36/36 52/39/39 53/37/37
f 54/38/38 55/180/180 52/39/39
f 187/40/40 7/36/36 27/12/12
f 40/25/25 11/65/65 176/42/42
f 8/44/44 56/49/49 57/45/45
f 58/46/46 59/260/260 60/47/47
f 8/44/44 60/47/47 61/48/48
f 63/50/50 64/266/266 65/51/51
f 9/53/53 66/58/58 67/54/54
f 9/53/53 68/55/55 69/56/56
f 70/57/57 71/261/261 66/58/58
f 10/59/59 72/62/62 73/60/60
f 10/59/59 70/57/57 69/56/56
f 74/61/61 71/261/261 70/57/57
f 75/63/63 76/158/158 77/64/64
f 176/42/42 11/65/65 77/64/64
f 173/67/67 174/162/162 172/68/68
f 11/65/65 45/29/29 78/70/70
f 80/71/71 46/30/30 50/33/33
f 82/73/73 83/110/110 84/74/74
f 86/76/76 87/109/109 88/77/77
f 12/79/79 89/83/83 90/80/80
f 12/79/79 92/85/85 93/82/82
f 12/79/79 91/81/81 94/84/84
f 95/86/86 96/139/139 17/4/4
f 16/2/2 97/148/148 98/87/87
f 98/87/87 99/91/91 24/88/88
f 98/87/87 97/148/148 100/89/89
f 101/90/90 102/92/92 99/91/91
f 102/92/92 103/96/96 104/93/93
f 102/92/92 101/90/90 105/94/94
f 106/95/95 107/97/97 103/96/96
f 49/35/35 51/34/34 103/96/96
f 107/97/97 106/95/95 108/98/98
f 107/97/97 109/99/99 50/33/33
f 109/99/99 108/98/98 110/100/100
f 109/99/99 111/101/101 79/72/72
f 111/101/101 110/100/100 78/70/70
f 112/102/102 80/71/71 79/72/72
f 112/102/102 78/70/70 45/29/29
f 44/103/103 113/104/104 80/71/71
f 113/104/104 47/106/106 46/30/30
f 113/104/104 44/103/103 43/28/28
f 114/105/105 115/108/108 47/106/106
f 116/107/107 48/31/31 47/106/106
f 115/108/108 114/105/105 88/77/77
f 115/108/108 87/109/109 83/110/110
f 116/107/107 83/110/110 82/73/73
f 117/111/111 51/34/34 48/31/31
f 117/111/111 82/73/73 118/112/112
f 104/93/93 103/96/96 51/34/34
f 118/112/112 82/73/73 81/75/75
f 119/113/113 22/10/10 24/88/88
f 118/112/112 24/88/88 99/91/91
f 81/75/75 84/74/74 120/114/114
f 119/113/113 120/114/114 23/115/115
f 84/74/74 86/76/76 121/116/116
f 121/116/116 122/117/117 23/115/115
f 122/117/117 121/116/116 123/118/118
f 124/119/119 125/269/269 126/120/120
f 126/120/120 20/9/9 23/115/115
f 126/120/120 125/269/269 127/121/121
f 126/120/120 128/122/122 21/123/123
f 128/122/122 127/121/121 129/124/124
f 128/122/122 130/125/125 131/126/126
f 130/125/125 72/62/62 69/56/56
f 131/126/126 69/56/56 68/55/55
f 132/127/127 18/8/8 21/123/123
f 68/55/55 67/54/54 133/128/128
f 132/127/127 133/128/128 19/129/129
f 67/54/54 134/258/258 135/130/130
f 133/128/128 135/130/130 136/131/131
f 135/130/130 137/194/194 138/132/132
f 136/131/131 138/132/132 139/133/133
f 95/86/86 13/7/7 19/129/129
f 138/132/132 140/192/192 141/134/134
f 139/133/133 141/134/134 142/135/135
f 143/136/136 96/139/139 95/86/86
f 142/135/135 144/196/196 145/137/137
f 143/136/136 145/137/137 146/138/138
f 145/137/137 147/202/202 148/140/140
f 146/138/138 148/140/140 149/141/141
f 150/142/142 17/4/4 96/139/139
f 150/142/142 149/141/141 151/143/143
f 152/144/144 15/5/5 17/4/4
f 151/143/143 153/146/146 154/145/145
f 152/144/144 154/145/145 16/2/2
f 153/146/146 155/149/149 156/147/147
f 154/145/145 156/147/147 97/148/148
f 155/149/149 157/151/151 158/150/150
f 156/147/147 158/150/150 100/89/89
f 157/151/151 159/256/256 160/152/152
f 158/150/150 160/152/152 161/153/153
f 161/153/153 105/94/94 101/90/90
f 160/152/152 162/257/257 163/154/154
f 161/153/153 163/154/154 164/155/155
f 164/155/155 108/98/98 106/95/95
f 164/155/155 163/154/154 165/156/156
f 166/157/157 110/100/100 108/98/98
f 166/157/157 165/156/156 76/158/158
f 75/63/63 78/70/70 110/100/100
f 163/154/154 162/257/257 167/159/159
f 165/156/156 167/159/159 168/160/160
f 167/159/159 169/243/243 170/161/161
f 168/160/160 170/161/161 171/69/69
f 172/68/68 77/64/64 76/158/158
f 174/162/162 175/66/66 77/64/64
f 26/163/163 40/25/25 181/43/43
f 174/162/162 177/271/271 178/165/165
f 175/66/66 178/165/165 179/166/166
f 179/166/166 180/167/167 181/43/43
f 180/167/167 182/272/272 183/164/164
f 26/163/163 183/164/164 184/41/41
f 191/168/168 194/174/174 54/38/38
f 183/164/164 182/272/272 185/170/170
f 184/41/41 185/170/170 186/171/171
f 187/40/40 186/171/171 188/172/172
f 188/172/172 190/235/235 191/168/168
f 192/173/173 193/178/178 194/174/174
f 235/175/175 232/218/218 231/176/176
f 193/178/178 195/181/181 196/179/179
f 194/174/174 196/179/179 55/180/180
f 195/181/181 197/198/198 198/182/182
f 196/179/179 198/182/182 199/183/183
f 200/184/184 52/39/39 55/180/180
f 198/182/182 201/197/197 202/185/185
f 199/183/183 202/185/185 203/186/186
f 204/187/187 205/188/188 200/184/184
f 203/186/186 202/185/185 142/135/135
f 141/134/134 140/192/192 204/187/187
f 205/188/188 206/190/190 207/189/189
f 205/188/188 53/37/37 52/39/39
f 204/187/187 208/191/191 206/190/190
f 208/191/191 61/48/48 63/50/50
f 208/191/191 204/187/187 140/192/192
f 208/191/191 209/193/193 56/49/49
f 140/192/192 138/132/132 137/194/194
f 209/193/193 137/194/194 57/45/45
f 62/52/52 65/51/51 33/195/195
f 33/195/195 28/14/14 53/37/37
f 206/190/190 63/50/50 62/52/52
f 202/185/185 201/197/197 144/196/196
f 201/197/197 198/182/182 197/198/198
f 201/197/197 210/199/199 211/200/200
f 210/199/199 212/203/203 213/201/201
f 211/200/200 213/201/201 90/80/80
f 147/202/202 145/137/137 144/196/196
f 212/203/203 214/206/206 215/204/204
f 213/201/201 215/204/204 91/81/81
f 216/205/205 94/84/84 91/81/81
f 214/206/206 217/207/207 216/205/205
f 217/207/207 218/211/211 219/208/208
f 217/207/207 214/206/206 220/209/209
f 221/210/210 222/213/213 218/211/211
f 223/212/212 224/251/251 218/211/211
f 222/213/213 221/210/210 225/214/214
f 222/213/213 226/215/215 227/216/216
f 228/217/217 229/245/245 223/212/212
f 226/215/215 230/242/242 231/176/176
f 227/216/216 231/176/176 232/218/218
f 232/218/218 233/221/221 234/219/219
f 232/218/218 235/175/175 236/220/220
f 236/220/220 173/67/67 171/69/69
f 246/222/222 251/237/237 252/223/223
f 235/175/175 237/227/227 238/225/225
f 238/225/225 239/226/226 173/67/67
f 239/226/226 177/271/271 174/162/162
f 237/227/227 235/175/175 240/177/177
f 240/177/177 242/230/230 243/229/229
f 242/230/230 244/236/236 245/231/231
f 245/231/231 244/236/236 246/222/222
f 247/232/232 246/222/222 248/224/224
f 249/233/233 248/224/224 192/173/173
f 250/234/234 192/173/173 191/168/168
f 248/224/224 252/223/223 193/178/178
f 244/236/236 256/241/241 251/237/237
f 251/237/237 253/239/239 254/238/238
f 252/223/223 254/238/238 195/181/181
f 253/239/239 220/209/209 255/240/240
f 254/238/238 255/240/240 197/198/198
f 255/240/240 220/209/209 214/206/206
f 255/240/240 212/203/203 210/199/199
f 253/239/239 225/214/214 221/210/210
f 251/237/237 256/241/241 225/214/214
f 256/241/241 230/242/242 226/215/215
f 256/241/241 244/236/236 242/230/230
f 242/230/230 240/177/177 231/176/176
f 234/219/219 170/161/161 169/243/243
f 234/219/219 257/244/244 229/245/245
f 233/221/221 171/69/69 170/161/161
f 257/244/244 169/243/243 258/246/246
f 257/244/244 259/247/247 260/248/248
f 259/247/247 261/255/255 262/249/249
f 260/248/248 262/249/249 263/250/250
f 224/251/251 223/212/212 229/245/245
f 263/250/250 262/249/249 36/20/20
f 35/19/19 264/252/252 219/208/208
f 219/208/208 218/211/211 224/251/251
f 264/252/252 35/19/19 34/22/22
f 264/252/252 265/253/253 92/85/85
f 94/84/84 216/205/205 219/208/208
f 265/253/253 266/254/254 93/82/82
f 265/253/253 34/22/22 38/21/21
f 266/254/254 151/143/143 149/141/141
f 266/254/254 38/21/21 153/146/146
f 261/255/255 39/23/23 36/20/20
f 159/256/256 157/151/151 39/23/23
f 261/255/255 259/247/247 258/246/246
f 162/257/257 160/152/152 159/256/256
f 169/243/243 167/159/159 162/257/257
f 157/151/151 155/149/149 37/24/24
f 155/149/149 153/146/146 38/21/21
f 148/140/140 89/83/83 93/82/82
f 147/202/202 90/80/80 89/83/83
f 137/194/194 135/130/130 134/258/258
f 267/259/259 58/46/46 57/45/45
f 134/258/258 67/54/54 66/58/58
f 267/259/259 268/262/262 59/260/260
f 267/259/259 66/58/58 71/261/261
f 268/262/262 269/264/264 270/263/263
f 71/261/261 74/61/61 269/264/264
f 271/265/265 65/51/51 64/266/266
f 64/266/266 60/47/47 59/260/260
f 269/264/264 272/267/267 271/265/265
f 272/267/267 32/16/16 31/17/17
f 272/267/267 269/264/264 74/61/61
f 73/60/60 129/124/124 32/16/16
f 271/265/265 31/17/17 33/195/195
f 129/124/124 73/60/60 72/62/62
f 127/121/121 29/15/15 32/16/16
f 127/121/121 125/269/269 30/268/268
f 125/269/269 124/119/119 41/27/27
f 124/119/119 123/118/118 42/270/270
f 85/78/78 88/77/77 42/270/270
f 121/116/116 86/76/76 85/78/78
f 114/105/105 43/28/28 42/270/270
f 86/76/76 84/74/74 83/110/110
f 63/50/50 61/48/48 60/47/47
f 187/40/40 189/169/169 54/38/38
f 278/273/273 281/274/274 310/275/275
f 278/273/273 279/276/276 280/277/277
f 282/278/278 315/279/279 279/276/276
f 291/280/280 284/281/281 287/282/282
f 283/283/283 285/284/284 286/285/285
f 286/285/285 284/281/281 283/283/283
f 290/286/286 287/282/282 289/287/287
f 286/285/285 289/287/287 287/282/282
f 274/288/288 295/289/289 290/286/286
f 274/288/288 289/287/287 273/290/290
f 291/280/280 293/291/291 294/292/292
f 291/280/280 295/289/289 292/293/293
f 275/294/294 293/291/291 318/295/295
f 274/288/288 297/296/296 296/297/297
f 273/290/290 299/298/298 297/296/296
f 299/298/298 300/299/299 301/300/300
f 301/300/300 302/301/301 303/302/302
f 303/302/302 304/303/303 305/304/304
f 306/305/305 304/303/303 307/306/306
f 307/306/306 309/307/307 306/305/305
f 309/307/307 310/275/275 311/308/308
f 311/308/308 281/274/274 312/309/309
f 281/274/274 313/310/310 312/309/309
f 280/277/277 314/311/311 313/310/310
f 279/276/276 316/312/312 314/311/311
f 316/312/312 276/313/313 317/314/314
f 317/314/314 275/294/294 318/295/295
f 283/283/283 276/313/313 315/279/279
f 308/315/315 278/273/273 310/275/275
f 277/316/316 308/315/315 307/306/306
f 285/284/284 278/273/273 319/317/317
f 319/317/317 320/318/318 285/284/284
f 288/319/319 285/284/284 320/318/318
f 320/318/318 298/320/320 288/319/319
f 288/319/319 273/290/290 289/287/287
f 277/316/316 300/299/299 320/318/318
f 277/316/316 304/303/303 302/301/301
f 275/294/294 284/281/281 294/292/292
f 278/273/273 280/277/277 281/274/274
f 278/273/273 282/278/278 279/276/276
f 282/278/278 283/283/283 315/279/279
f 291/280/280 294/292/292 284/281/281
f 283/283/283 282/278/278 285/284/284
f 286/285/285 287/282/282 284/281/281
f 290/286/286 291/280/280 287/282/282
f 286/285/285 288/319/319 289/287/287
f 274/288/288 296/297/297 295/289/289
f 274/288/288 290/286/286 289/287/287
f 291/280/280 292/293/293 293/291/291
f 291/280/280 290/286/286 295/289/289
f 275/294/294 294/292/292 293/291/291
f 274/288/288 273/290/290 297/296/296
f 273/290/290 298/320/320 299/298/298
f 299/298/298 298/320/320 300/299/299
f 301/300/300 300/299/299 302/301/301
f 303/302/302 302/301/301 304/303/303
f 306/305/305 305/304/304 304/303/303
f 307/306/306 308/315/315 309/307/307
f 309/307/307 308/315/315 310/275/275
f 311/308/308 310/275/275 281/274/274
f 281/274/274 280/277/277 313/310/310
f 280/277/277 279/276/276 314/311/311
f 279/276/276 315/279/279 316/312/312
f 316/312/312 315/279/279 276/313/313
f 317/314/314 276/313/313 275/294/294
f 283/283/283 284/281/281 276/313/313
f 308/315/315 319/317/317 278/273/273
f 277/316/316 319/317/317 308/315/315
f 285/284/284 282/278/278 278/273/273
f 319/317/317 277/316/316 320/318/318
f 288/319/319 286/285/285 285/284/284
f 320/318/318 300/299/299 298/320/320
f 288/319/319 298/320/320 273/290/290
f 277/316/316 302/301/301 300/299/299
f 277/316/316 307/306/306 304/303/303
f 275/294/294 276/313/313 284/281/281
